<svg width="3343" height="994" viewBox="0 0 3343 994" fill="none" 
    
    
    
    
    
    
    
    
    
    
    
    
    
    
    
    
    
    
    
    
    
    
    
    
    xmlns="http://www.w3.org/2000/svg">
    <path fill-rule="evenodd" clip-rule="evenodd" d="M493.798 113.5L559.334 0L745.129 107.287L679.618 220.762C668.112 240.669 685.334 264.875 707.9 260.526L833.454 236.295L874.087 446.967L748.534 471.173C545.441 510.34 390.388 292.635 493.798 113.5Z" fill="#FB9502"/>
    <path fill-rule="evenodd" clip-rule="evenodd" d="M380.289 880.503L314.753 994.003L128.933 886.741L194.469 773.241C205.975 753.335 188.753 729.129 166.162 733.478L40.6334 757.684L0 547.036L125.553 522.83C328.646 483.663 483.674 701.369 380.289 880.503Z" fill="#657105"/>
    <path fill-rule="evenodd" clip-rule="evenodd" d="M488.354 880.503L553.839 994.003L739.659 886.741L674.124 773.241C662.642 753.335 679.84 729.129 702.431 733.478L827.959 757.684L868.593 547.036L743.039 522.83C539.947 483.663 384.919 701.369 488.304 880.503H488.354Z" fill="#B6BD77"/>
    <path fill-rule="evenodd" clip-rule="evenodd" d="M385.962 113.5L320.452 0L134.631 107.287L200.166 220.762C211.648 240.669 194.45 264.875 171.86 260.526L46.3063 236.295L5.72266 446.967L131.251 471.173C334.369 510.34 489.422 292.635 385.987 113.5H385.962Z" fill="#C35230"/>
    <path d="M3160.35 752.934C3137.2 752.934 3116.57 748.724 3098.48 740.306C3080.8 731.467 3066.7 718.839 3056.17 702.423C3046.07 686.007 3041.02 666.013 3041.02 642.442C3041.02 615.082 3047.54 593.405 3060.59 577.41C3073.64 561.415 3090.69 549.419 3111.73 541.421C3133.2 533.424 3156.14 527.952 3180.55 525.005C3205.39 522.059 3229.38 520.375 3252.53 519.954V596.983C3210.86 596.141 3180.77 599.298 3162.24 606.453C3144.15 613.188 3135.1 624.342 3135.1 639.916C3135.1 651.281 3139.3 659.279 3147.72 663.909C3156.56 668.539 3166.66 670.854 3178.03 670.854C3188.97 670.854 3200.13 669.17 3211.49 665.803C3223.28 662.436 3232.96 655.911 3240.54 646.23C3248.53 636.549 3252.53 622.238 3252.53 603.296V559.1H3342.82V742.831H3252.53V708.737C3242.85 722.206 3229.59 732.94 3212.76 740.937C3196.34 748.935 3178.87 752.934 3160.35 752.934ZM3029.02 519.954C3029.02 495.962 3035.34 473.232 3047.96 451.765C3060.59 430.298 3078.9 412.83 3102.9 399.36C3126.89 385.891 3155.93 379.156 3190.03 379.156C3236.33 379.156 3272.32 391.784 3297.99 417.039C3323.67 441.873 3338.4 476.178 3342.19 519.954H3252.53C3251.27 502.696 3246.43 488.596 3238.01 477.652C3229.59 466.708 3213.6 461.236 3190.03 461.236C3171.93 461.236 3158.04 464.182 3148.35 470.075C3138.67 475.547 3131.94 482.913 3128.15 492.173C3124.78 501.013 3123.1 510.273 3123.1 519.954H3029.02Z" fill="white"/>
    <path d="M2827.53 742.834V300.867H2917.81V665.805H2996.1V742.834H2827.53ZM2787.12 466.289V389.26H2986V466.289H2787.12Z" fill="white"/>
    <path d="M2570.28 752.934C2547.13 752.934 2526.51 748.724 2508.41 740.306C2490.73 731.467 2476.63 718.839 2466.1 702.423C2456 686.007 2450.95 666.013 2450.95 642.442C2450.95 615.082 2457.48 593.405 2470.52 577.41C2483.57 561.415 2500.62 549.419 2521.67 541.421C2543.13 533.424 2566.07 527.952 2590.49 525.005C2615.32 522.059 2639.31 520.375 2662.46 519.954V596.983C2620.79 596.141 2590.7 599.298 2572.18 606.453C2554.08 613.188 2545.03 624.342 2545.03 639.916C2545.03 651.281 2549.24 659.279 2557.65 663.909C2566.49 668.539 2576.6 670.854 2587.96 670.854C2598.9 670.854 2610.06 669.17 2621.42 665.803C2633.21 662.436 2642.89 655.911 2650.47 646.23C2658.47 636.549 2662.46 622.238 2662.46 603.296V559.1H2752.75V742.831H2662.46V708.737C2652.78 722.206 2639.52 732.94 2622.69 740.937C2606.27 748.935 2588.8 752.934 2570.28 752.934ZM2438.96 519.954C2438.96 495.962 2445.27 473.232 2457.9 451.765C2470.52 430.298 2488.83 412.83 2512.83 399.36C2536.82 385.891 2565.86 379.156 2599.96 379.156C2646.26 379.156 2682.25 391.784 2707.92 417.039C2733.6 441.873 2748.33 476.178 2752.12 519.954H2662.46C2661.2 502.696 2656.36 488.596 2647.94 477.652C2639.52 466.708 2623.53 461.236 2599.96 461.236C2581.86 461.236 2567.97 464.182 2558.29 470.075C2548.6 475.547 2541.87 482.913 2538.08 492.173C2534.71 501.013 2533.03 510.273 2533.03 519.954H2438.96Z" fill="white"/>
    <path d="M2069.79 389.258H2160.07V443.557C2164.7 432.192 2171.44 421.669 2180.28 411.988C2189.54 402.307 2201.53 394.52 2216.27 388.627C2231.42 382.313 2249.94 379.156 2271.83 379.156C2294.56 379.156 2314.76 383.786 2332.44 393.047C2350.12 402.307 2364.01 417.67 2374.11 439.137C2384.21 460.183 2389.26 488.806 2389.26 525.005V742.831H2298.98V533.213C2298.98 519.323 2297.92 506.695 2295.82 495.33C2293.71 483.545 2288.87 474.284 2281.3 467.55C2274.14 460.815 2262.57 457.447 2246.57 457.447C2233.94 457.447 2220.9 461.025 2207.43 468.181C2193.96 475.337 2182.59 487.122 2173.33 503.538C2164.49 519.533 2160.07 541.632 2160.07 569.833V742.831H2069.79V389.258Z" fill="white"/>
    <path d="M1830.38 752.934C1807.23 752.934 1786.61 748.724 1768.51 740.306C1750.83 731.467 1736.73 718.839 1726.21 702.423C1716.1 686.007 1711.05 666.013 1711.05 642.442C1711.05 615.082 1717.58 593.405 1730.63 577.41C1743.67 561.415 1760.72 549.419 1781.77 541.421C1803.23 533.424 1826.17 527.952 1850.59 525.005C1875.42 522.059 1899.41 520.375 1922.57 519.954V596.983C1880.89 596.141 1850.8 599.298 1832.28 606.453C1814.18 613.188 1805.13 624.342 1805.13 639.916C1805.13 651.281 1809.34 659.279 1817.76 663.909C1826.6 668.539 1836.7 670.854 1848.06 670.854C1859.01 670.854 1870.16 669.17 1881.53 665.803C1893.31 662.436 1902.99 655.911 1910.57 646.23C1918.57 636.549 1922.57 622.238 1922.57 603.296V559.1H2012.85V742.831H1922.57V708.737C1912.88 722.206 1899.63 732.94 1882.79 740.937C1866.37 748.935 1848.9 752.934 1830.38 752.934ZM1699.06 519.954C1699.06 495.962 1705.37 473.232 1718 451.765C1730.63 430.298 1748.94 412.83 1772.93 399.36C1796.92 385.891 1825.96 379.156 1860.06 379.156C1906.36 379.156 1942.35 391.784 1968.02 417.039C1993.7 441.873 2008.43 476.178 2012.22 519.954H1922.57C1921.3 502.696 1916.46 488.596 1908.04 477.652C1899.63 466.708 1883.63 461.236 1860.06 461.236C1841.96 461.236 1828.07 464.182 1818.39 470.075C1808.71 475.547 1801.97 482.913 1798.18 492.173C1794.82 501.013 1793.13 510.273 1793.13 519.954H1699.06Z" fill="white"/>
    <path d="M1474.17 389.258H1564.46V742.831H1474.17V389.258ZM1564.46 569.833L1554.98 504.801C1554.98 493.857 1556.04 481.229 1558.14 466.918C1560.25 452.607 1565.09 438.927 1572.66 425.878C1580.66 412.409 1592.87 401.255 1609.28 392.415C1625.7 383.576 1648.01 379.156 1676.21 379.156V467.55C1651.38 467.55 1630.54 470.286 1613.7 475.758C1597.29 481.229 1584.87 491.332 1576.45 506.064C1568.45 520.375 1564.46 541.632 1564.46 569.833Z" fill="white"/>
    <path d="M1177.36 518.062H1238.6V597.616H1177.36V518.062ZM1238.6 518.062C1258.81 518.062 1276.06 516.378 1290.38 513.011C1305.11 509.223 1316.26 502.488 1323.84 492.807C1331.84 482.705 1335.84 468.183 1335.84 449.242C1335.84 430.3 1331.84 415.989 1323.84 406.308C1316.26 396.206 1305.11 389.471 1290.38 386.104C1276.06 382.315 1258.81 380.421 1238.6 380.421V300.867C1276.91 300.867 1310.37 305.708 1338.99 315.389C1368.04 325.07 1390.55 340.855 1406.55 362.742C1422.97 384.209 1431.17 413.042 1431.17 449.242C1431.17 485.02 1422.97 513.853 1406.55 535.741C1390.55 557.629 1368.04 573.413 1338.99 583.094C1310.37 592.775 1276.91 597.616 1238.6 597.616V518.062ZM1177.36 300.867H1238.6V380.421H1177.36V300.867ZM1177.36 342.538V742.834H1085.81V342.538H1177.36Z" fill="white"/>
</svg>
